Coordinates
nRows=12
nColumns=24

# SIMM Motion File Header:
name Coordinates
datacolumns 24
datarows 12
otherdata 1
range 0.14666999999999999000 0.15767000000000000000
endheader
time	pelvis_tx	pelvis_ty	pelvis_tz	pelvis_tilt	pelvis_list	pelvis_rotation	hip_flexion_r	hip_adduction_r	hip_rotation_r	knee_angle_r	ankle_angle_r	subtalar_angle_r	mtp_angle_r	hip_flexion_l	hip_adduction_l	hip_rotation_l	knee_angle_l	ankle_angle_l	subtalar_angle_l	mtp_angle_l	lumbar_extension	lumbar_bending	lumbar_rotation
      0.14666999999999999000	      0.68291461484707550000	      0.88631505518484699000	     -0.27236567767830078000	     -0.19918828402652064000	      4.56704292102280450000	     -6.49696864307618590000	      9.74477276031483090000	     -9.55470720586262350000	     -8.98370845053062260000	    -61.00537149145212400000	     -4.12500312299801310000	      0.00000000000000022146	     -0.00000000000000128339	      9.51310634074044080000	      4.83899820641793620000	      0.72049136198930752000	    -16.25502832469224000000	      7.74322477645409980000	      0.00000000000000582927	     -0.00000000000001284049	    -12.21362673012775500000	     -6.18582479579987070000	     14.09135418404011700000
      0.14767000000000000000	      0.68481543965605018000	      0.88636918564359224000	     -0.27255217521333275000	     -0.27045113116144726000	      4.57709570785354190000	     -6.43501872014615550000	     10.06636726268443200000	     -9.56855761939986140000	     -8.97736635733717140000	    -61.06317902154134500000	     -3.87576493960002420000	      0.00000000000000023896	     -0.00000000000000135965	      9.39313087956279350000	      4.87864144139261760000	      0.77391910810879461000	    -16.13536049080121200000	      7.78775042003608140000	      0.00000000000000600556	     -0.00000000000001319384	    -12.16390876607919200000	     -6.13178053261820200000	     13.96111154158559000000
      0.14867000000000000000	      0.68671778074826129000	      0.88642797963663578000	     -0.27273836603032786000	     -0.33734009171032692000	      4.58865161649872810000	     -6.37319482403749140000	     10.38191389314559900000	     -9.58487631374029190000	     -8.97100676890698350000	    -61.11341312335282100000	     -3.64545375762145520000	      0.00000000000000024936	     -0.00000000000000142526	      9.26743827304150790000	      4.91976372762759340000	      0.82450979437082983000	    -16.01293505154629000000	      7.82331500621442450000	      0.00000000000000619451	     -0.00000000000001357341	    -12.11884064225979100000	     -6.07973872524353710000	     13.82920492752826800000
      0.14967000000000000000	      0.68862217397227710000	      0.88649306780826831000	     -0.27292414536626408000	     -0.39832073120951550000	      4.60223802281915790000	     -6.31153803133002800000	     10.68928554697258100000	     -9.60452957529530770000	     -8.96462447707381570000	    -61.15339202744612400000	     -3.44075214738671290000	      0.00000000000000024994	     -0.00000000000000147570	      9.13402112941799870000	      4.96288177906152230000	      0.87126419774275965000	    -15.88678194588767000000	      7.84678300777899820000	      0.00000000000000640054	     -0.00000000000001398835	    -12.08005302958770800000	     -6.03040012333364040000	     13.69504404964785800000
      0.15067000000000000000	      0.69052656719629280000	      0.88655815597990084000	     -0.27310992470220030000	     -0.45930137070870408000	      4.61582442913958780000	     -6.24988123862256550000	     10.99665720079956300000	     -9.62418283685032350000	     -8.95824218524064800000	    -61.19337093153942700000	     -3.23605053715197060000	      0.00000000000000025053	     -0.00000000000000152615	      9.00060398579449130000	      5.00599983049545120000	      0.91801860111468947000	    -15.76062884022905000000	      7.87025100934357270000	      0.00000000000000660658	     -0.00000000000001440329	    -12.04126541691562300000	     -5.98106152142374370000	     13.56088317176745100000
      0.15167000000000000000	      0.69243362534282571000	      0.88662488241648219000	     -0.27329648405202400000	     -0.51656798767080114000	      4.63098419361593280000	     -6.18707068357088910000	     11.29655401998225600000	     -9.64647024841362820000	     -8.95242853256312900000	    -61.21628654670005400000	     -3.05935665550140530000	      0.00000000000000022498	     -0.00000000000000147992	      8.86188197143303210000	      5.04978165476222870000	      0.96050543601248672000	    -15.63154074119949600000	      7.88849634146342640000	      0.00000000000000682926	     -0.00000000000001487224	    -12.00614934970843400000	     -5.93311199731400320000	     13.42250862029170300000
      0.15267000000000000000	      0.69434090790419045000	      0.88669174681240426000	     -0.27348310908731677000	     -0.57352184441642917000	      4.64627645159023390000	     -6.12416296945328750000	     11.59582137855234800000	     -9.66897948343615530000	     -8.94666276535308920000	    -61.23776525137160600000	     -2.88502132261227430000	      0.00000000000000019722	     -0.00000000000000142554	      8.72271323050926210000	      5.09361937576436930000	      1.00263289623594190000	    -15.50220548449847900000	      7.90630186924451820000	      0.00000000000000705335	     -0.00000000000001534573	    -11.97134246569626000000	     -5.88527944833544050000	     13.28377923266387500000
      0.15367000000000000000	      0.69624878114454491000	      0.88675484720495235000	     -0.27367056304416321000	     -0.63199584933589625000	      4.66124090574565300000	     -6.06021315482813170000	     11.89515265985531300000	     -9.69102574542244000000	     -8.94141193722609450000	    -61.25287300178516900000	     -2.71040582265763420000	      0.00000000000000017829	     -0.00000000000000137186	      8.58515334023091190000	      5.13635851225910760000	      1.04402103991218140000	    -15.37336198594878000000	      7.93027219679967920000	      0.00000000000000728210	     -0.00000000000001582972	    -11.93466963301581400000	     -5.83647629771370550000	     13.14332794101733800000
      0.15467000000000000000	      0.69815746232544817000	      0.88681279913106670000	     -0.27385915081370077000	     -0.69254913821715036000	      4.67575698438416860000	     -5.99483793779206750000	     12.19457137573573700000	     -9.71243874518760460000	     -8.93686545134356260000	    -61.25926645497569500000	     -2.53540710552985350000	      0.00000000000000017143	     -0.00000000000000131916	      8.44979406263065160000	      5.17759498658826180000	      1.08439793411566270000	    -15.24519112237948100000	      7.96267484004514790000	      0.00000000000000751723	     -0.00000000000001632807	    -11.89544452470446100000	     -5.78634554201724070000	     13.00052140040794100000
      0.15567000000000000000	      0.70006614350635143000	      0.88687075105718105000	     -0.27404773858323839000	     -0.75310242709840458000	      4.69027306302268430000	     -5.92946272075600420000	     12.49399009161616200000	     -9.73385174495276930000	     -8.93231896546103070000	    -61.26565990816622100000	     -2.36040838840207280000	      0.00000000000000016457	     -0.00000000000000126646	      8.31443478503039300000	      5.21883146091741600000	      1.12477482831914370000	    -15.11702025881018400000	      7.99507748329061660000	      0.00000000000000775236	     -0.00000000000001682642	    -11.85621941639310600000	     -5.73621478632077510000	     12.85771485979854100000
      0.15667000000000000000	      0.70197533077940444000	      0.88691642763406908000	     -0.27423799109742691000	     -0.81980236066979861000	      4.70278248802079620000	     -5.86174900048416880000	     12.79688570849897600000	     -9.75232507389417870000	     -8.92893824039141570000	    -61.26101075130156200000	     -2.16600376463258690000	      0.00000000000000015561	     -0.00000000000000119705	      8.18601845023829000000	      5.25607378767370560000	      1.16438312041763450000	    -14.99121525746791600000	      8.04923793033663590000	      0.00000000000000797744	     -0.00000000000001737869	    -11.80981993780762600000	     -5.68232669412679050000	     12.71200593152041600000
      0.15767000000000000000	      0.70388456067080141000	      0.88696107049593709000	     -0.27442838380082862000	     -0.88701990712712631000	      4.71512293143070150000	     -5.79383835335717110000	     13.10007411744195800000	     -9.77055085127282830000	     -8.92565568478645770000	    -61.25543168917199200000	     -1.96996495703642100000	      0.00000000000000014647	     -0.00000000000000112624	      8.05818678510662250000	      5.29297976470485840000	      1.20392668804061810000	    -14.86560948689898800000	      8.10523061597533710000	      0.00000000000000820167	     -0.00000000000001793551	    -11.76281630090658800000	     -5.62812219421998880000	     12.56605259131789300000
